# xmcd
#
# Track frame offsets: 
#        150
#        14160
#        29675
#        38547
#        56930
#        72875
#        84470
#        97657
#        116127
#        126535
#        148317
#        162162
#
# Disc length: 2349 seconds
#
# Revision: 5
# Processed by: cddbd v1.5.2PL0 Copyright (c) Steve Scherf et al.
# Submitted via: ExactAudioCopy v1.2
#
DISCID=ae092b0c
DTITLE=Betsy Pecanins - El efecto tequila
DYEAR=1995
DGENRE=Blues
TTITLE0=No me amenaces
TTITLE1=Fallaste corazón
TTITLE2=Ya llegó el ausente
TTITLE3=La chancla
TTITLE4=Amanecí en tus brazos
TTITLE5=Los tarzanes
TTITLE6=Arrieros somos
TTITLE7=Por un amor
TTITLE8=Libro abierto
TTITLE9=Un mundo raro
TTITLE10=La tequilera
TTITLE11=Continuo sufrimiento
EXTD=
EXTT0=
EXTT1=
EXTT2=
EXTT3=
EXTT4=
EXTT5=
EXTT6=
EXTT7=
EXTT8=
EXTT9=
EXTT10=
EXTT11=
PLAYORDER=
